<svg version="1.1" id="Calque_1" xmlns="http://www.w3.org/2000/svg" xmlns:xlink="http://www.w3.org/1999/xlink" viewBox="0 0 150 150" enable-background="new 0 0 150 150" xml:space="preserve">
<g id="Calque_2" display="none">
	<circle display="inline" fill="none" stroke="#000000" stroke-miterlimit="10" cx="75" cy="73.875" r="62.5"/>
</g>
<g id="Calque_1_1_">
	<g>
		<circle fill="#FF5252" cx="75" cy="74.112" r="50"/>
		<g enable-background="new    ">
			<path fill="#FFFFFF" d="M73.27,105.092H60.859V45.603h34.099v10.336H73.27v15.34h20.182v10.295H73.27V105.092z"/>
		</g>
	</g>
	<g enable-background="new    ">
		<path fill="#FF5252" d="M21.703,132.784h5.098v6.662c-0.826,0.27-1.604,0.459-2.333,0.567c-0.729,0.107-1.475,0.162-2.237,0.162
			c-1.939,0-3.42-0.569-4.443-1.709s-1.534-2.776-1.534-4.909c0-2.074,0.593-3.691,1.78-4.852s2.832-1.74,4.935-1.74
			c1.318,0,2.59,0.264,3.814,0.791l-0.905,2.18c-0.938-0.469-1.913-0.703-2.927-0.703c-1.178,0-2.121,0.396-2.83,1.187
			s-1.063,1.854-1.063,3.19c0,1.395,0.286,2.46,0.857,3.194c0.571,0.736,1.402,1.104,2.492,1.104c0.568,0,1.146-0.059,1.731-0.176
			v-2.681h-2.435V132.784z"/>
		<path fill="#FF5252" d="M37.216,140h-2.681v-12.85H41.9v2.232h-4.685v3.313h4.359v2.224h-4.359V140z"/>
		<path fill="#FF5252" d="M53.133,135.069c0,1.6-0.422,2.851-1.266,3.753s-2.019,1.354-3.524,1.354
			c-0.943,0-1.775-0.207-2.496-0.619c-0.721-0.414-1.274-1.007-1.661-1.78s-0.58-1.676-0.58-2.707c0-1.605,0.419-2.854,1.257-3.744
			s2.016-1.336,3.533-1.336c0.943,0,1.775,0.205,2.496,0.615s1.274,0.999,1.661,1.767S53.133,134.038,53.133,135.069z
			 M46.339,135.069c0,0.973,0.16,1.708,0.479,2.206s0.839,0.747,1.56,0.747c0.715,0,1.229-0.247,1.542-0.743
			c0.313-0.494,0.47-1.231,0.47-2.21c0-0.973-0.158-1.702-0.475-2.188s-0.835-0.729-1.556-0.729c-0.715,0-1.23,0.241-1.547,0.726
			C46.497,133.359,46.339,134.091,46.339,135.069z"/>
		<path fill="#FF5252" d="M64.418,140h-2.681v-5.739c0-0.709-0.126-1.24-0.378-1.595s-0.653-0.532-1.204-0.532
			c-0.75,0-1.292,0.251-1.626,0.751c-0.334,0.502-0.501,1.332-0.501,2.492V140h-2.681v-9.826h2.048l0.36,1.257h0.149
			c0.299-0.475,0.71-0.833,1.235-1.077c0.524-0.242,1.121-0.364,1.789-0.364c1.143,0,2.01,0.31,2.602,0.927
			c0.592,0.619,0.888,1.511,0.888,2.677V140z"/>
		<path fill="#FF5252" d="M71.317,138.04c0.469,0,1.031-0.103,1.688-0.308v1.995c-0.668,0.299-1.488,0.448-2.461,0.448
			c-1.072,0-1.853-0.271-2.342-0.813s-0.734-1.355-0.734-2.439v-4.737h-1.283v-1.134l1.477-0.896l0.773-2.074h1.714v2.092h2.751
			v2.013h-2.751v4.737c0,0.381,0.107,0.662,0.321,0.844S70.966,138.04,71.317,138.04z"/>
		<path fill="#FF5252" d="M81.847,137.082c0,1.008-0.351,1.775-1.05,2.303c-0.701,0.527-1.748,0.791-3.143,0.791
			c-0.715,0-1.324-0.049-1.828-0.145c-0.504-0.098-0.976-0.239-1.415-0.427v-2.215c0.498,0.234,1.059,0.431,1.683,0.589
			c0.625,0.158,1.174,0.237,1.648,0.237c0.973,0,1.459-0.281,1.459-0.844c0-0.211-0.064-0.382-0.193-0.515
			c-0.129-0.131-0.352-0.281-0.668-0.447c-0.316-0.168-0.738-0.362-1.266-0.585c-0.756-0.316-1.311-0.609-1.666-0.879
			c-0.354-0.27-0.612-0.578-0.773-0.927s-0.242-0.778-0.242-1.288c0-0.873,0.338-1.548,1.015-2.026
			c0.677-0.477,1.636-0.716,2.878-0.716c1.184,0,2.335,0.258,3.454,0.773l-0.809,1.934c-0.492-0.211-0.952-0.384-1.38-0.519
			s-0.864-0.202-1.31-0.202c-0.791,0-1.187,0.214-1.187,0.642c0,0.24,0.127,0.448,0.383,0.624c0.254,0.176,0.813,0.437,1.674,0.782
			c0.768,0.311,1.33,0.601,1.688,0.87s0.621,0.58,0.791,0.932S81.847,136.596,81.847,137.082z"/>
		<path fill="#FF5252" d="M96.41,136.432c0,1.16-0.418,2.074-1.252,2.742c-0.836,0.668-1.997,1.002-3.485,1.002
			c-1.371,0-2.584-0.258-3.639-0.773v-2.531c0.867,0.387,1.601,0.659,2.202,0.817c0.6,0.158,1.149,0.237,1.647,0.237
			c0.598,0,1.056-0.114,1.376-0.343c0.318-0.229,0.479-0.568,0.479-1.02c0-0.252-0.07-0.476-0.211-0.673
			c-0.141-0.195-0.348-0.385-0.619-0.566c-0.273-0.182-0.828-0.472-1.666-0.87c-0.785-0.369-1.374-0.724-1.767-1.063
			s-0.706-0.735-0.94-1.187s-0.352-0.979-0.352-1.582c0-1.137,0.385-2.03,1.156-2.681c0.77-0.65,1.835-0.976,3.194-0.976
			c0.668,0,1.306,0.079,1.911,0.237c0.607,0.158,1.241,0.381,1.903,0.668l-0.879,2.118c-0.686-0.281-1.253-0.478-1.7-0.589
			c-0.449-0.111-0.89-0.167-1.323-0.167c-0.516,0-0.911,0.12-1.187,0.36s-0.413,0.554-0.413,0.94c0,0.24,0.056,0.45,0.167,0.628
			c0.111,0.18,0.289,0.352,0.531,0.52c0.244,0.166,0.819,0.467,1.728,0.9c1.201,0.574,2.024,1.15,2.47,1.727
			C96.188,134.887,96.41,135.594,96.41,136.432z"/>
		<path fill="#FF5252" d="M106.605,140l-0.756-3.437l-1.002-4.342h-0.079L102.976,140h-2.883l-2.795-9.826h2.672l1.134,4.351
			c0.129,0.516,0.308,1.591,0.536,3.226h0.07c0.023-0.445,0.126-1.151,0.308-2.118l0.141-0.747l1.213-4.711h2.953l1.151,4.711
			c0.07,0.322,0.157,0.795,0.259,1.42c0.104,0.623,0.16,1.105,0.172,1.445h0.07c0.064-0.521,0.155-1.114,0.272-1.779
			s0.217-1.147,0.299-1.446l1.178-4.351h2.628l-2.83,9.826H106.605z"/>
		<path fill="#FF5252" d="M120.176,140l-0.519-1.336h-0.07c-0.451,0.568-0.915,0.963-1.394,1.182c-0.477,0.221-1.1,0.33-1.867,0.33
			c-0.943,0-1.686-0.27-2.229-0.809c-0.541-0.539-0.813-1.307-0.813-2.303c0-1.043,0.365-1.812,1.094-2.307
			c0.73-0.495,1.83-0.77,3.301-0.822l1.705-0.053v-0.431c0-0.996-0.51-1.494-1.529-1.494c-0.785,0-1.708,0.237-2.769,0.712
			l-0.888-1.811c1.131-0.592,2.385-0.888,3.762-0.888c1.318,0,2.329,0.287,3.032,0.861s1.055,1.447,1.055,2.619V140H120.176z
			 M119.385,135.447l-1.037,0.035c-0.779,0.023-1.359,0.164-1.74,0.422s-0.571,0.65-0.571,1.178c0,0.756,0.434,1.134,1.301,1.134
			c0.621,0,1.118-0.179,1.489-0.536c0.373-0.357,0.559-0.832,0.559-1.424V135.447z"/>
		<path fill="#FF5252" d="M130.204,140.176c-1.154,0-2.06-0.419-2.716-1.257h-0.141c0.094,0.82,0.141,1.295,0.141,1.424v3.981
			h-2.681v-14.15h2.18l0.378,1.274h0.123c0.627-0.973,1.556-1.459,2.786-1.459c1.16,0,2.068,0.448,2.725,1.345
			s0.984,2.142,0.984,3.735c0,1.049-0.153,1.96-0.462,2.733c-0.307,0.773-0.745,1.362-1.313,1.767S130.972,140.176,130.204,140.176z
			 M129.413,132.134c-0.662,0-1.146,0.204-1.45,0.61c-0.305,0.408-0.463,1.08-0.475,2.018v0.29c0,1.055,0.156,1.811,0.471,2.268
			c0.313,0.457,0.81,0.686,1.489,0.686c1.201,0,1.802-0.99,1.802-2.971c0-0.967-0.148-1.692-0.443-2.175
			C130.51,132.375,130.046,132.134,129.413,132.134z"/>
	</g>
	<circle fill="#FF1D25" cx="12.5" cy="75.5" r="5"/>
	<circle fill="#FF1D25" cx="13.5" cy="61.5" r="5"/>
	<circle opacity="0.9" fill="#FF1D25" enable-background="new    " cx="17.5" cy="48.5" r="5"/>
	<circle opacity="0.85" fill="#FF1D25" enable-background="new    " cx="24.5" cy="36.5" r="5"/>
	<circle opacity="0.8" fill="#FF1D25" enable-background="new    " cx="33.5" cy="27.5" r="5"/>
	<circle fill="#FF931E" cx="43.5" cy="20.5" r="5"/>
	<circle fill="#FF931E" cx="54.5" cy="14.5" r="5"/>
	<circle opacity="0.95" fill="#FF931E" enable-background="new    " cx="67.5" cy="11.5" r="5"/>
	<circle fill="#39B54A" cx="137.5" cy="75.5" r="5"/>
	<circle fill="#39B54A" cx="136.5" cy="61.5" r="5"/>
	<circle opacity="0.9" fill="#39B54A" enable-background="new    " cx="132.5" cy="48.5" r="5"/>
	<circle opacity="0.85" fill="#39B54A" enable-background="new    " cx="125.5" cy="36.5" r="5"/>
	<circle opacity="0.8" fill="#39B54A" enable-background="new    " cx="116.5" cy="27.5" r="5"/>
	<circle opacity="0.8" fill="#FF931E" enable-background="new    " cx="106.5" cy="20.5" r="5"/>
	<circle opacity="0.85" fill="#FF931E" enable-background="new    " cx="95.5" cy="14.5" r="5"/>
	<circle opacity="0.9" fill="#FF931E" enable-background="new    " cx="82.5" cy="11.5" r="5"/>
</g>
</svg>
